<?xml version="1.0" encoding="iso-8859-1"?>
<!-- Generator: Adobe Illustrator 17.1.0, SVG Export Plug-In . SVG Version: 6.00 Build 0)  -->
<!DOCTYPE svg PUBLIC "-//W3C//DTD SVG 1.1//EN" "http://www.w3.org/Graphics/SVG/1.1/DTD/svg11.dtd">
<svg version="1.1" id="Capa_1" xmlns="http://www.w3.org/2000/svg" xmlns:xlink="http://www.w3.org/1999/xlink" x="0px" y="0px"
	 viewBox="0 0 511 511" style="enable-background:new 0 0 511 511;" xml:space="preserve">
<g>
	<path d="M503.5,144H439v-0.5c0-12.958-10.542-23.5-23.5-23.5S392,130.542,392,143.5v0.5h-64.5c-4.142,0-7.5,3.358-7.5,7.5
		s3.358,7.5,7.5,7.5H384v8.5c0,0.168,0.01,0.333,0.013,0.5h-48.357c-0.007,0-0.014,0-0.021,0H175.375c-0.012,0-0.024,0-0.036,0
		h-48.353c0.003-0.167,0.013-0.332,0.013-0.5V159h56.5c4.142,0,7.5-3.358,7.5-7.5s-3.358-7.5-7.5-7.5H119v-0.5
		c0-12.958-10.542-23.5-23.5-23.5S72,130.542,72,143.5v0.5H7.5c-4.142,0-7.5,3.358-7.5,7.5s3.358,7.5,7.5,7.5H64v8.5
		c0,17.369,14.131,31.5,31.5,31.5c11.737,0,21.987-6.457,27.406-16h47.188l6.997,20.991c1.58,4.74,3.998,9.02,7.05,12.707
		C165.867,220.157,152,236.235,152,255.5v64c0,4.142,3.358,7.5,7.5,7.5h8c4.142,0,7.5-3.358,7.5-7.5s-3.358-7.5-7.5-7.5H167v-56.5
		c0-13.509,10.991-24.5,24.5-24.5h23.064h81.871H319.5c13.509,0,24.5,10.991,24.5,24.5V312h-0.5c-4.142,0-7.5,3.358-7.5,7.5
		s3.358,7.5,7.5,7.5h8c4.142,0,7.5-3.358,7.5-7.5v-64c0-19.265-13.867-35.343-32.141-38.802c3.052-3.687,5.47-7.966,7.05-12.707
		L340.906,183h47.188c5.419,9.543,15.669,16,27.406,16c17.369,0,31.5-14.131,31.5-31.5V159h56.5c4.142,0,7.5-3.358,7.5-7.5
		S507.642,144,503.5,144z M87,143.5c0-4.687,3.813-8.5,8.5-8.5s8.5,3.813,8.5,8.5v0.5H87V143.5z M95.5,184
		c-9.098,0-16.5-7.402-16.5-16.5V159h33v8.5C112,176.598,104.598,184,95.5,184z M319.678,199.248
		c-3.34,10.02-12.68,16.752-23.243,16.752h-81.871c-10.563,0-19.903-6.732-23.243-16.752L185.906,183h139.188L319.678,199.248z
		 M407,143.5c0-4.687,3.813-8.5,8.5-8.5s8.5,3.813,8.5,8.5v0.5h-17V143.5z M432,167.5c0,9.098-7.402,16.5-16.5,16.5
		s-16.5-7.402-16.5-16.5V159h33V167.5z"/>
	<path d="M327,303.498V255.5c0-4.142-3.358-7.5-7.5-7.5h-47.997c-0.002,0-0.003,0-0.005,0h-39.995c-0.002,0-0.003,0-0.005,0h-39.995
		c-0.248,0-0.496,0.013-0.744,0.037c-0.107,0.01-0.21,0.031-0.315,0.046c-0.137,0.019-0.274,0.036-0.41,0.063
		c-0.122,0.024-0.241,0.058-0.361,0.088c-0.117,0.03-0.235,0.055-0.351,0.09c-0.118,0.036-0.231,0.08-0.347,0.121
		c-0.116,0.041-0.232,0.079-0.346,0.126c-0.108,0.045-0.212,0.098-0.317,0.147c-0.116,0.054-0.233,0.106-0.347,0.167
		c-0.103,0.055-0.201,0.118-0.301,0.178c-0.11,0.065-0.221,0.127-0.327,0.199c-0.112,0.075-0.218,0.159-0.326,0.24
		c-0.088,0.066-0.178,0.126-0.263,0.197c-0.383,0.314-0.734,0.665-1.047,1.047c-0.069,0.084-0.13,0.174-0.195,0.26
		c-0.082,0.109-0.166,0.215-0.241,0.328c-0.071,0.106-0.133,0.217-0.198,0.326c-0.06,0.101-0.123,0.199-0.179,0.302
		c-0.06,0.113-0.111,0.229-0.165,0.344c-0.05,0.107-0.104,0.212-0.149,0.321c-0.047,0.113-0.084,0.228-0.125,0.342
		c-0.042,0.116-0.086,0.231-0.123,0.35c-0.035,0.116-0.061,0.233-0.09,0.35c-0.03,0.12-0.064,0.239-0.088,0.362
		c-0.027,0.136-0.043,0.273-0.063,0.41c-0.015,0.105-0.035,0.209-0.046,0.315c-0.024,0.247-0.037,0.496-0.037,0.744v39.995
		c0,0.001,0,0.003,0,0.005v39.995c0,0.001,0,0.003,0,0.005V383.5c0,4.142,3.358,7.5,7.5,7.5h128c0.247,0,0.494-0.013,0.74-0.037
		c0.111-0.011,0.218-0.031,0.327-0.047c0.133-0.019,0.267-0.035,0.399-0.061c0.124-0.025,0.244-0.059,0.366-0.089
		c0.116-0.029,0.232-0.054,0.346-0.089c0.12-0.036,0.236-0.082,0.353-0.124c0.113-0.041,0.227-0.078,0.339-0.124
		c0.11-0.046,0.216-0.099,0.323-0.15c0.114-0.054,0.229-0.105,0.342-0.165c0.103-0.055,0.201-0.118,0.302-0.178
		c0.11-0.065,0.221-0.127,0.327-0.199c0.112-0.075,0.217-0.158,0.324-0.239c0.088-0.066,0.179-0.127,0.264-0.198
		c0.383-0.314,0.734-0.665,1.047-1.047c0.069-0.084,0.13-0.174,0.195-0.26c0.082-0.109,0.166-0.215,0.241-0.328
		c0.071-0.106,0.133-0.217,0.198-0.326c0.06-0.101,0.123-0.199,0.179-0.302c0.061-0.113,0.112-0.23,0.166-0.345
		c0.05-0.106,0.103-0.21,0.148-0.319c0.047-0.114,0.085-0.229,0.126-0.345c0.041-0.116,0.086-0.23,0.122-0.348
		c0.035-0.116,0.061-0.233,0.09-0.35c0.03-0.12,0.064-0.239,0.088-0.362c0.027-0.136,0.043-0.273,0.063-0.41
		c0.015-0.105,0.035-0.209,0.046-0.315c0.024-0.247,0.037-0.496,0.037-0.744v-39.995c0-0.001,0-0.003,0-0.005v-39.995
		C327,303.501,327,303.499,327,303.498z M282.606,376L199,292.394v-18.787L301.394,376H282.606z M242.606,376L199,332.394v-18.787
		L261.394,376H242.606z M209.606,263h18.787L312,346.606v18.787L209.606,263z M249.606,263h18.787L312,306.606v18.787L249.606,263z
		 M312,285.394L289.606,263H312V285.394z M199,353.606L221.394,376H199V353.606z"/>
</g>
<g>
</g>
<g>
</g>
<g>
</g>
<g>
</g>
<g>
</g>
<g>
</g>
<g>
</g>
<g>
</g>
<g>
</g>
<g>
</g>
<g>
</g>
<g>
</g>
<g>
</g>
<g>
</g>
<g>
</g>
</svg>
