<?xml version="1.0" encoding="utf-8"?>
<!-- Generator: Adobe Illustrator 16.0.0, SVG Export Plug-In . SVG Version: 6.00 Build 0)  -->
<!DOCTYPE svg PUBLIC "-//W3C//DTD SVG 1.1//EN" "http://www.w3.org/Graphics/SVG/1.1/DTD/svg11.dtd">
<svg version="1.1" id="Calque_1" xmlns="http://www.w3.org/2000/svg" xmlns:xlink="http://www.w3.org/1999/xlink" x="0px" y="0px"
	 width="417px" height="254px" viewBox="0 0 417 254" enable-background="new 0 0 417 254" xml:space="preserve">
<g>
	<path fill-rule="evenodd" clip-rule="evenodd" d="M133.294,83.654c10.791,0.002,21.584-0.044,32.377,0.044
		c2.097,0.017,3.347-0.364,3.574-2.73c0.271-2.838,2.051-3.766,4.855-3.757c23.031,0.065,46.064,0.052,69.097-0.016
		c2.705-0.008,4.315,1.057,4.588,3.683c0.24,2.3,1.36,2.811,3.517,2.803c21.809-0.073,43.618-0.086,65.425,0.009
		c2.398,0.011,2.954-0.698,2.888-2.98c-0.16-5.447-0.027-10.903-0.028-16.354c-0.002-2.653,0.852-4.83,3.865-4.711
		c2.813,0.112,3.459,2.236,3.428,4.758c-0.068,5.563,0.033,11.127-0.049,16.689c-0.029,1.787,0.267,2.701,2.339,3.158
		c5.87,1.288,8.378,4.713,8.261,10.728c-0.111,5.888-1.498,11.454-4.688,16.453c-5.344,8.374-14.051,8.249-19.176-0.294
		c-3.287-5.479-4.69-11.511-4.378-17.866c0.091-1.884-0.257-2.453-2.201-2.446c-15.354,0.071-30.708,0.026-46.064,0.043
		c-3.974,0.003-3.229,3.912-4.684,5.958c-1.351,1.904,1.005,2.328,1.997,3.056c15.16,11.13,23.267,26.071,23.677,44.855
		c0.33,15.014,0.053,30.04,0.073,45.061c0.002,2.257-0.109,4.555-3.05,4.529c-2.922-0.024-3.035-2.323-3-4.578
		c0.049-3.337-0.108-6.681,0.057-10.011c0.106-2.191-0.354-3.427-2.837-2.984c-2.491,0.443-3.344-0.567-3.143-3.099
		c0.229-2.874,0.188-5.789,0.011-8.668c-0.137-2.186,0.553-3.148,2.767-2.736c2.709,0.506,3.308-0.719,3.219-3.257
		c-0.319-9.196,0.735-18.472-2.039-27.498c-3.312-10.769-9.4-19.522-18.491-26.222c-1.774-1.308-2.844-1.858-3.656,0.855
		c-0.768,2.566-2.79,3.492-5.434,3.466c-6.675-0.065-13.352,0.002-20.027-0.042c-1.603-0.009-2.886,0.31-4.228,1.393
		c-8.18,6.606-19.199,6.571-27.31-0.084c-1.249-1.024-2.42-1.316-3.91-1.306c-6.564,0.044-13.129-0.057-19.691,0.07
		c-3.051,0.059-5.209-0.925-6.167-3.923c-0.659-2.065-1.643-1.777-3.092-0.703c-12.943,9.604-19.96,22.426-20.793,38.515
		c-0.275,5.327,0.035,10.682-0.126,16.019c-0.065,2.176,0.549,3.108,2.759,2.693c2.712-0.51,3.428,0.725,3.239,3.285
		c-0.211,2.876-0.161,5.789,0.007,8.671c0.123,2.1-0.674,2.936-2.663,2.582c-2.95-0.526-3.505,0.879-3.337,3.497
		c0.219,3.437,0.032,6.895,0.062,10.344c0.019,2.19-0.72,3.841-3.163,3.752c-2.236-0.081-2.878-1.678-2.875-3.715
		c0.041-16.134-0.491-32.29,0.225-48.393c0.786-17.685,9.023-31.826,23.448-42.17c2.07-1.484,2.47-2.487,1.42-4.983
		c-1.416-3.372-3.225-4.416-6.907-4.347c-14.236,0.271-28.482,0.142-42.724,0.085c-1.966-0.01-2.831,0.159-2.706,2.631
		c0.322,6.332-1.058,12.404-4.484,17.824c-5.354,8.471-13.88,8.435-19.15-0.058c-3.441-5.542-4.822-11.674-4.556-18.147
		c0.188-4.514,3.017-7.66,8.141-8.818c1.981-0.447,2.467-1.258,2.437-3.112c-0.093-5.562,0.019-11.126-0.049-16.688
		c-0.031-2.675,0.696-4.886,3.703-4.817c2.986,0.067,3.634,2.364,3.607,4.983c-0.056,5.341,0.136,10.689-0.09,16.021
		c-0.11,2.617,0.794,3.083,3.19,3.056C111.485,83.583,122.389,83.654,133.294,83.654z"/>
	<path fill-rule="evenodd" clip-rule="evenodd" d="M208.383,171.609c-8.298,0-16.596,0.016-24.893-0.008
		c-4.741-0.012-8.01-3.137-8.042-7.883c-0.07-10.266-0.065-20.532-0.004-30.8c0.029-4.798,3.153-7.801,8.012-7.859
		c4.149-0.049,8.298-0.055,12.446,0.001c1.104,0.013,1.768-0.207,2.292-1.307c0.786-1.646,2.274-2.413,4.131-2.41
		c4.148,0.007,8.298,0.009,12.447-0.005c1.875-0.007,3.329,0.823,4.102,2.451c0.54,1.137,1.275,1.27,2.331,1.26
		c4.009-0.031,8.019-0.023,12.024,0.004c5.372,0.035,8.364,2.989,8.383,8.349c0.033,9.917,0.039,19.829,0.014,29.747
		c-0.015,5.395-3.13,8.452-8.563,8.466c-8.227,0.02-16.454,0.005-24.681,0.005C208.383,171.616,208.383,171.612,208.383,171.609z
		 M208.484,131.809c-9.158,0.024-16.465,7.337-16.466,16.477c0,9.181,7.469,16.622,16.641,16.576
		c9.006-0.045,16.418-7.584,16.368-16.65C224.975,139.068,217.628,131.783,208.484,131.809z M232.088,137.633
		c1.728,0.042,3.267-1.382,3.339-3.09c0.071-1.66-1.439-3.268-3.121-3.32c-1.679-0.058-3.247,1.417-3.32,3.125
		C228.907,136.068,230.346,137.592,232.088,137.633z"/>
	<path fill-rule="evenodd" clip-rule="evenodd" d="M117.885,67.411c6.108-0.225,11.95,0.269,17.43,2.79
		c1.648,0.758,4.011,1.38,3.738,3.67c-0.262,2.222-2.695,2.507-4.448,2.871c-8.201,1.709-16.361,0.774-24.493-0.709
		c-2.074-0.378-4.16-0.978-6.238-0.967c-2.273,0.012-2.515-1.138-2.466-2.87c0.049-1.744-0.337-3.592,2.349-3.842
		C108.517,67.91,113.257,67.271,117.885,67.411z"/>
	<path fill-rule="evenodd" clip-rule="evenodd" d="M69.34,77.591c-5.378,0.203-10.663-0.337-15.732-2.236
		c-1.239-0.464-2.465-1.054-3.552-1.799c-2.509-1.721-2.339-3.257,0.484-4.538c2.04-0.925,4.249-1.256,6.464-1.491
		c9.323-0.99,18.36,1.218,27.465,2.538c2.608,0.377,0.875,2.733,1.336,4.117c0.495,1.477-0.346,2.209-1.846,2.391
		C79.102,77.159,74.244,77.713,69.34,77.591z"/>
	<path fill-rule="evenodd" clip-rule="evenodd" d="M292.75,77.597c-4.535-0.001-8.316-0.005-11.923-1.375
		c-1.23-0.466-2.716-0.822-2.889-2.402c-0.176-1.608,1.226-2.287,2.365-2.909c3.757-2.052,7.854-3.124,12.08-3.38
		c6.771-0.411,13.529-0.058,20.279,0.725c2.476,0.286,3.039,1.39,3.001,3.662c-0.036,2.132-0.508,2.992-2.886,3.209
		C305.832,75.762,299.062,77.91,292.75,77.597z"/>
	<path fill-rule="evenodd" clip-rule="evenodd" d="M347.092,77.508c-4.574,0.208-9.09-0.456-13.63-0.851
		c-2.521-0.218-2.354-1.726-2.212-3.462c0.126-1.549-0.438-3.041,2.256-3.351c8.372-0.96,16.615-3.081,25.155-2.42
		c2.681,0.207,5.302,0.585,7.788,1.604c1.004,0.412,2.191,0.901,2.257,2.2c0.065,1.266-0.982,1.954-1.936,2.515
		c-4.112,2.419-8.668,3.358-13.345,3.736C351.328,77.648,349.204,77.508,347.092,77.508z"/>
	<path fill-rule="evenodd" clip-rule="evenodd" fill="#FEFEFE" d="M208.484,131.809c9.144-0.025,16.49,7.26,16.542,16.402
		c0.051,9.066-7.361,16.605-16.368,16.65c-9.171,0.046-16.641-7.396-16.641-16.576C192.02,139.146,199.326,131.833,208.484,131.809z
		 M208.531,158.621c5.815-0.002,10.271-4.437,10.312-10.265c0.042-5.817-4.576-10.457-10.408-10.456
		c-6.032,0.001-10.546,5.039-10.441,11.651C198.065,154.058,203.371,158.624,208.531,158.621z"/>
	<path fill-rule="evenodd" clip-rule="evenodd" fill="#FEFEFE" d="M245.789,152.592c-2.753-0.067-5.029-2.475-4.908-5.197
		c0.118-2.699,2.597-5.032,5.253-4.943c2.658,0.088,5.047,2.629,4.935,5.254C250.956,150.405,248.522,152.657,245.789,152.592z"/>
	<path fill-rule="evenodd" clip-rule="evenodd" d="M208.531,158.621c-5.161,0.003-10.466-4.563-10.538-9.069
		c-0.104-6.612,4.41-11.65,10.441-11.651c5.832-0.001,10.45,4.639,10.408,10.456C218.802,154.185,214.347,158.619,208.531,158.621z"
		/>
</g>
</svg>
